<svg width="40" height="40" viewBox="0 0 40 40" fill="none" xmlns="http://www.w3.org/2000/svg">
  <defs>
    <linearGradient id="logoGradient" x1="0%" y1="0%" x2="100%" y2="100%">
      <stop offset="0%" style="stop-color:#667eea;stop-opacity:1" />
      <stop offset="100%" style="stop-color:#764ba2;stop-opacity:1" />
    </linearGradient>
  </defs>
  
  <!-- Background Circle -->
  <circle cx="20" cy="20" r="20" fill="url(#logoGradient)"/>
  
  <!-- Cloud Shape -->
  <path d="M12 24c-2.2 0-4-1.8-4-4 0-1.5.8-2.8 2-3.5-.1-.3-.1-.6-.1-1 0-2.2 1.8-4 4-4 1.5 0 2.8.8 3.5 2 .3-.1.6-.1 1-.1 2.2 0 4 1.8 4 4 0 .4-.1.7-.2 1 1.2.7 2 2 2 3.5 0 2.2-1.8 4-4 4H12z" fill="white" opacity="0.9"/>
  
  <!-- Shield -->
  <path d="M20 12l-3 1.5v3c0 1.9 1.3 3.7 3 4.2 1.7-.5 3-2.3 3-4.2v-3L20 12z" fill="white"/>
  
  <!-- AI Circuit Pattern -->
  <circle cx="16" cy="18" r="1" fill="white" opacity="0.7"/>
  <circle cx="24" cy="18" r="1" fill="white" opacity="0.7"/>
  <circle cx="20" cy="22" r="1" fill="white" opacity="0.7"/>
  <line x1="16" y1="18" x2="20" y2="22" stroke="white" stroke-width="0.5" opacity="0.7"/>
  <line x1="24" y1="18" x2="20" y2="22" stroke="white" stroke-width="0.5" opacity="0.7"/>
</svg>
