<svg xmlns="http://www.w3.org/2000/svg" width="120" height="120" viewBox="0 0 120 120">
  <defs>
    <linearGradient id="grad" x1="0" y1="0" x2="1" y2="1">
      <stop offset="0%" stop-color="#3b82f6"></stop>
      <stop offset="100%" stop-color="#06b6d4"></stop>
    </linearGradient>
  </defs>
  <rect width="120" height="120" rx="20" fill="#f9fafb"></rect>
  <path d="M60 36a20 20 0 00-19 15 12 12 0 00-2 .2A12 12 0 0040 76h40a14 14 0 001.5-28A20 20 0 0060 36z" fill="url(#grad)"></path>
  <path d="M60 55l10 5v10c0 7-10 14-10 14s-10-7-10-14V60z" fill="#0f172a" stroke="white" stroke-width="2"></path>
  <circle cx="60" cy="65" r="3" fill="white"></circle>
  <text x="60" y="108" text-anchor="middle" font-family="Arial, sans-serif" font-size="12" fill="#334155">Cloud Secure AI</text>
</svg>
